<?xml version="1.0" standalone="no"?>
<!DOCTYPE svg PUBLIC "-//W3C//DTD SVG 20010904//EN"
 "http://www.w3.org/TR/2001/REC-SVG-20010904/DTD/svg10.dtd">
<svg version="1.0" xmlns="http://www.w3.org/2000/svg"
 width="1536.000000pt" height="1024.000000pt" viewBox="0 0 1536.000000 1024.000000"
 preserveAspectRatio="xMidYMid meet">

<g transform="translate(0.000000,1024.000000) scale(0.100000,-0.100000)"
fill="#000000" stroke="none">
<path d="M4593 8496 c-135 -44 -231 -149 -268 -293 -38 -144 8 -325 104 -417
17 -17 31 -35 31 -40 0 -6 -22 -48 -50 -94 -277 -460 -418 -945 -450 -1547
l-9 -180 -43 -34 c-165 -134 -319 -316 -390 -461 -23 -47 -42 -86 -42 -86 -1
-1 -22 -5 -48 -8 l-48 -7 0 45 c0 143 -58 439 -125 644 -82 247 -182 421 -319
558 -64 64 -99 90 -170 125 l-89 44 -415 3 c-471 3 -475 3 -599 -74 -283 -175
-511 -662 -578 -1229 -19 -167 -20 -501 0 -665 78 -669 342 -1164 683 -1282
66 -23 75 -23 462 -23 384 0 397 1 454 22 169 64 348 247 458 468 110 220 200
551 229 843 10 98 16 122 27 117 7 -3 22 -5 31 -5 15 0 19 -13 24 -84 7 -100
29 -192 63 -257 13 -27 24 -53 24 -58 0 -6 -34 -72 -76 -148 -185 -333 -254
-542 -254 -767 0 -239 96 -495 232 -621 267 -247 652 -148 980 252 15 18 29
33 32 33 6 0 50 -137 68 -210 8 -34 13 -112 12 -205 -1 -172 -23 -299 -119
-672 -30 -117 -55 -217 -55 -222 0 -14 2956 -15 2964 -2 3 5 -3 35 -14 67 -46
134 -63 250 -63 434 0 251 40 488 110 660 55 133 46 128 106 58 95 -112 227
-184 357 -195 247 -21 495 178 666 533 74 155 154 427 154 525 0 16 3 29 8 28
4 0 22 -31 40 -69 73 -148 219 -297 357 -365 129 -64 151 -66 573 -63 l379 3
89 44 c160 79 310 252 425 486 100 205 182 516 210 789 16 168 6 523 -20 694
-35 230 -121 513 -206 682 -97 192 -248 359 -390 430 l-88 45 -418 3 c-467 3
-485 1 -611 -65 -237 -124 -444 -470 -543 -908 -14 -60 -25 -118 -25 -129 0
-15 -5 -17 -27 -12 -16 4 -95 9 -178 12 -118 5 -164 3 -218 -10 -76 -18 -149
-52 -196 -92 -36 -30 -105 -119 -123 -159 l-12 -26 -250 3 -251 3 -135 54
c-74 30 -151 62 -170 71 -46 23 -90 68 -90 91 0 20 9 22 210 38 191 16 277 52
398 165 47 45 78 65 103 70 116 21 243 130 316 272 81 155 118 338 132 646 12
289 -3 370 -99 507 -112 159 -519 456 -955 699 -208 115 -587 272 -775 321
-163 42 -263 54 -435 54 -167 0 -269 -12 -426 -49 l-106 -25 -60 59 c-64 65
-142 118 -213 147 -60 23 -210 30 -267 11z m214 -280 c69 -33 129 -95 165
-173 25 -53 30 -73 26 -119 -3 -29 -1 -54 4 -54 27 0 92 46 118 83 16 23 35
50 42 59 7 10 51 28 98 42 387 110 759 71 1200 -124 484 -213 1076 -602 1174
-771 19 -32 19 -32 0 -25 -39 16 -151 36 -199 36 -179 0 -276 -138 -198 -281
32 -59 85 -105 187 -160 l76 -41 -6 -51 c-38 -325 -128 -525 -266 -590 -102
-48 -259 -47 -472 4 -152 36 -169 35 -174 -19 -6 -59 99 -143 241 -191 l52
-18 -60 -8 c-191 -25 -817 61 -1132 155 -353 105 -598 277 -746 524 -47 79
-93 202 -103 276 -8 62 -17 55 -33 -24 -15 -83 -14 -237 4 -340 30 -169 89
-285 212 -417 99 -105 161 -148 372 -259 96 -50 205 -112 242 -137 80 -53 158
-133 188 -191 l21 -42 -489 0 -489 0 -30 65 c-68 144 -223 235 -403 235 -80 0
-176 -28 -224 -64 -21 -16 -47 -26 -67 -26 -59 0 -149 -29 -231 -75 -43 -25
-81 -45 -84 -45 -2 0 10 20 26 44 36 51 181 190 286 272 l75 59 0 115 c0 238
34 566 80 770 82 367 234 714 434 985 36 49 66 93 66 97 0 5 -24 23 -53 42
-63 40 -133 115 -153 161 -20 48 -18 140 4 177 20 36 82 68 132 68 19 0 58
-11 87 -24z m2932 -1675 c-11 -115 -33 -210 -67 -276 -27 -55 -92 -148 -98
-142 -3 2 17 62 44 133 27 71 56 156 65 189 14 50 43 214 48 275 1 8 5 -7 9
-35 4 -27 3 -92 -1 -144z m2054 -121 c143 -135 236 -291 313 -525 83 -253 109
-453 101 -779 -7 -292 -34 -459 -113 -701 -88 -269 -230 -495 -380 -606 -65
-48 -78 -50 -37 -6 49 53 91 121 153 250 269 561 316 1365 115 1966 -48 140
-130 308 -198 404 -31 42 -52 77 -47 77 5 0 47 -36 93 -80z m-7316 -43 c174
-184 303 -488 358 -847 22 -142 31 -493 16 -645 -37 -385 -144 -722 -302 -950
-48 -70 -199 -225 -219 -225 -5 0 10 28 34 63 163 236 282 598 333 1012 20
169 23 538 5 700 -41 356 -152 699 -297 916 -30 45 -55 84 -55 86 0 10 78 -58
127 -110z m6829 -758 c87 -42 160 -156 190 -300 12 -54 15 -109 11 -204 -5
-152 -33 -256 -92 -343 -102 -151 -269 -151 -369 0 -28 41 -76 153 -76 175 0
1 54 3 120 3 143 0 168 9 200 74 29 61 30 175 2 237 -40 89 -87 110 -227 101
l-86 -5 6 29 c11 47 60 146 88 180 59 70 154 92 233 53z m-7396 -41 c185 -94
251 -519 120 -778 -38 -74 -74 -116 -121 -140 -185 -95 -356 165 -336 510 10
162 47 274 119 356 68 77 136 93 218 52z m2624 -122 c194 -114 228 -380 95
-748 -97 -270 -110 -316 -139 -470 -93 -496 -194 -750 -376 -947 -66 -72 -172
-145 -249 -172 -73 -26 -173 -25 -224 1 -151 77 -236 364 -186 629 20 103 53
190 121 320 49 92 159 262 246 378 29 40 30 44 15 61 -40 44 -147 319 -147
378 0 10 14 14 53 14 28 0 76 3 105 6 l52 7 0 -45 c0 -24 5 -49 12 -56 22 -22
63 -13 106 24 135 115 164 373 54 464 -20 17 -45 30 -55 30 -26 0 -18 28 15
53 16 12 48 22 80 25 46 3 59 0 95 -25 74 -50 131 -147 168 -285 10 -39 23
-68 31 -68 23 0 51 48 64 108 21 99 -16 211 -99 300 l-31 33 23 9 c37 16 124
4 171 -24z m3627 -35 c45 -51 82 -139 104 -251 32 -164 34 -167 73 -110 23 33
24 41 20 155 -4 87 -11 137 -26 180 -11 33 -19 61 -18 62 8 8 104 -33 120 -51
50 -56 86 -180 101 -348 4 -43 11 -78 15 -78 13 0 52 103 63 168 9 50 8 82 -5
155 -8 51 -14 94 -11 96 2 3 22 -9 45 -25 55 -39 69 -82 75 -225 5 -97 2 -129
-17 -200 -24 -93 -74 -206 -141 -320 -24 -41 -48 -83 -52 -94 -4 -10 -24 -116
-43 -235 -61 -377 -103 -531 -191 -702 -53 -104 -119 -193 -200 -269 -100 -96
-194 -128 -267 -94 -79 38 -166 172 -192 297 -40 188 31 407 243 748 50 80
111 186 136 236 l46 92 -40 78 c-59 116 -62 170 -15 306 55 160 47 236 -36
322 l-48 50 18 30 c26 46 95 78 157 73 43 -4 54 -10 86 -46z m-848 -511 c47
-52 83 -124 109 -218 17 -62 21 -107 22 -237 1 -141 -2 -169 -22 -235 -37
-117 -98 -227 -146 -262 -81 -59 -166 -87 -268 -89 -32 -1 -58 -5 -58 -9 0
-14 64 -63 108 -82 23 -11 74 -22 112 -25 l70 -6 0 -38 c0 -59 -30 -244 -55
-345 -25 -98 -68 -204 -116 -286 -30 -50 -35 -68 -64 -228 -22 -118 -94 -328
-159 -465 l-55 -115 -934 0 -934 0 18 82 c31 140 44 339 31 470 -15 147 -30
204 -103 373 -169 391 -172 402 -173 630 0 269 27 436 114 694 38 113 79 254
91 313 l22 108 181 3 c100 1 629 3 1177 5 l997 2 35 -40z m399 -52 c3 -79 9
-104 36 -162 18 -37 32 -74 32 -81 0 -7 -24 -49 -53 -94 l-54 -83 -6 101 c-3
56 -14 132 -23 169 -18 73 -75 205 -93 216 -28 18 -5 26 73 26 l84 0 4 -92z"/>
<path d="M5840 7607 c-19 -6 -56 -32 -82 -57 -42 -40 -48 -52 -48 -86 0 -32 6
-46 30 -69 17 -16 30 -38 30 -50 0 -30 39 -85 79 -112 42 -28 111 -30 161 -5
36 18 76 69 87 111 3 13 21 37 39 54 19 16 34 38 34 49 0 78 -144 180 -253
177 -23 -1 -58 -6 -77 -12z"/>
<path d="M1780 5290 c-78 -83 -59 -320 28 -360 62 -28 121 45 130 160 9 126
-38 230 -103 230 -17 0 -37 -11 -55 -30z"/>
<path d="M6510 4537 c0 -98 -14 -220 -35 -303 -37 -145 -143 -294 -253 -356
-64 -37 -58 -50 25 -56 117 -8 255 78 302 189 67 154 65 375 -5 567 -9 23 -20
42 -25 42 -5 0 -9 -37 -9 -83z"/>
<path d="M4905 4226 c-4 -35 -5 -151 -3 -258 6 -209 17 -272 77 -423 54 -133
155 -265 260 -338 44 -30 44 -30 37 -6 -40 139 -48 185 -53 315 -3 78 -3 153
0 166 7 25 7 25 105 20 77 -3 115 0 177 16 95 24 195 60 195 71 0 4 -37 13
-82 20 -97 14 -274 71 -338 108 -140 81 -272 206 -329 313 -18 33 -34 60 -36
60 -2 0 -7 -29 -10 -64z"/>
<path d="M6437 3422 c-96 -199 -223 -291 -399 -292 -27 0 -48 -5 -48 -10 0
-13 111 -86 156 -102 18 -6 35 -21 38 -32 14 -53 6 -163 -30 -383 -8 -54 9
-57 60 -13 75 66 131 190 161 356 18 96 19 100 83 194 53 79 72 142 72 237 0
70 -19 143 -37 143 -5 0 -30 -44 -56 -98z"/>
<path d="M12574 5390 c-30 -12 -62 -56 -70 -95 -4 -22 1 -48 16 -83 l22 -51
-31 -45 c-70 -101 -114 -247 -127 -420 l-7 -86 -58 -73 c-32 -39 -59 -76 -60
-82 0 -5 -11 40 -23 101 -29 140 -66 222 -123 275 -64 59 -96 69 -215 69 -122
0 -164 -15 -222 -80 -90 -100 -132 -256 -123 -464 7 -183 50 -322 126 -408 50
-58 97 -70 243 -66 119 3 126 4 162 31 68 52 123 167 152 315 8 41 14 76 14
78 0 2 14 4 31 4 31 0 31 -1 25 -37 -4 -21 -30 -85 -59 -142 -47 -94 -52 -112
-56 -182 -4 -93 18 -176 58 -221 24 -27 36 -32 88 -36 71 -5 94 5 181 78 l61
50 7 -56 c11 -89 -10 -266 -41 -346 -7 -17 17 -18 420 -18 l427 0 -7 23 c-17
56 -17 225 0 302 l17 77 21 -20 c34 -31 103 -62 137 -62 75 0 141 57 193 168
l30 63 26 -24 c52 -49 82 -57 212 -57 103 0 129 3 165 21 58 27 109 87 150
173 54 115 69 184 68 326 0 186 -42 316 -131 411 -68 73 -81 78 -225 80 -144
2 -177 -8 -233 -74 -46 -53 -72 -109 -93 -196 l-16 -71 -48 0 c-62 0 -107 -19
-141 -60 l-28 -32 -92 4 c-88 5 -152 22 -142 39 3 4 24 10 48 14 23 3 56 11
74 16 34 11 111 88 136 135 25 48 47 177 47 273 0 87 -1 92 -32 126 -68 78
-369 249 -493 280 -67 17 -213 20 -265 5 -30 -9 -37 -7 -60 14 -42 41 -92 54
-136 36z m100 -101 c15 -12 26 -30 26 -45 0 -30 5 -30 41 0 52 44 195 47 310
7 155 -53 388 -193 420 -252 10 -19 8 -20 -25 -14 -38 8 -98 -8 -116 -30 -22
-26 -3 -61 40 -79 22 -9 52 -16 66 -16 23 0 24 -2 18 -37 -15 -84 -40 -138
-75 -162 -31 -21 -41 -23 -111 -17 -43 3 -80 1 -83 -4 -3 -4 9 -20 27 -34 l32
-25 -28 -7 c-71 -17 -247 17 -361 71 -107 51 -159 95 -195 168 l-31 62 4 -70
c7 -123 41 -167 207 -267 58 -35 103 -68 100 -73 -3 -6 -62 -10 -132 -11
l-126 -1 -22 29 c-48 64 -147 77 -223 28 -59 -37 -68 -38 -35 -2 48 52 55 73
62 187 3 61 13 138 21 172 19 83 77 198 131 264 49 60 52 69 25 69 -37 0 -78
79 -54 103 13 14 61 6 87 -14z m1414 -483 c91 -47 158 -205 169 -391 6 -114
-11 -213 -50 -299 -26 -56 -86 -129 -121 -148 -16 -9 -14 -3 9 23 47 54 71 97
95 174 45 146 35 340 -27 506 -19 53 -36 79 -71 109 -47 42 -48 49 -4 26z
m-2068 -53 c128 -156 115 -619 -22 -757 -40 -40 -68 -43 -30 -3 60 64 103 227
103 395 0 175 -41 332 -104 401 l-22 24 22 -12 c12 -6 35 -28 53 -48z m-188
-230 c41 -50 51 -160 22 -233 -30 -74 -79 -77 -113 -6 -36 74 -26 183 21 234
26 26 50 28 70 5z m2166 -26 c57 -60 56 -194 0 -254 -28 -30 -53 -29 -83 2
-34 33 -32 55 3 55 47 0 72 25 72 72 0 50 -22 78 -62 78 -32 0 -36 15 -12 48
20 29 55 28 82 -1z m-1394 -59 c23 -32 20 -113 -8 -209 -13 -46 -29 -116 -35
-155 -19 -128 -57 -201 -136 -264 -31 -25 -47 -30 -78 -28 -59 4 -81 39 -81
126 0 63 5 78 62 198 34 71 62 134 62 139 0 6 14 22 30 37 26 23 30 33 30 77
0 27 -5 53 -11 56 -14 9 19 45 41 45 25 0 41 -23 47 -70 6 -45 17 -51 34 -19
11 21 9 58 -6 93 -7 16 -6 17 13 7 12 -6 28 -21 36 -33z m1050 7 c9 -13 21
-48 27 -76 11 -51 12 -52 25 -28 7 13 13 44 14 67 0 30 4 42 12 40 16 -6 26
-41 27 -98 2 -42 3 -44 17 -25 8 11 17 36 21 57 9 60 23 44 23 -25 0 -53 -6
-76 -39 -143 -21 -44 -41 -101 -45 -127 -17 -113 -73 -223 -131 -259 -43 -26
-69 -22 -99 13 -48 57 -33 136 57 293 39 67 44 81 35 102 -9 18 -7 36 5 75 22
66 21 78 -4 106 -18 18 -20 25 -9 38 18 22 46 18 64 -10z m-274 -167 c26 -44
27 -137 1 -195 -20 -43 -85 -99 -128 -109 -13 -4 -23 -10 -23 -15 0 -11 38
-31 75 -39 28 -6 30 -9 27 -49 -1 -23 -9 -61 -18 -84 -9 -23 -20 -62 -25 -86
-13 -66 -47 -128 -81 -152 -39 -28 -162 -44 -273 -34 -99 8 -137 31 -155 93
-15 56 -13 93 5 86 8 -4 17 1 21 9 6 16 -2 33 -48 108 -14 24 -29 65 -33 91
l-7 46 40 -10 c32 -8 51 -7 91 7 28 9 53 20 56 25 3 4 -26 16 -63 26 -84 22
-136 47 -156 76 -19 27 -20 87 -4 174 l11 64 334 0 333 0 20 -32z m126 -15
c11 -47 4 -93 -14 -93 -5 0 -14 21 -20 48 -6 26 -14 57 -18 70 -5 18 -2 22 18
22 20 0 25 -7 34 -47z"/>
<path d="M12920 5100 c-26 -26 -25 -52 3 -78 31 -29 50 -28 89 7 28 25 31 31
18 46 -15 18 -63 45 -80 45 -5 0 -19 -9 -30 -20z"/>
<path d="M11782 4438 c-14 -14 -16 -86 -3 -107 26 -41 62 38 42 92 -12 30 -21
33 -39 15z"/>
<path d="M13130 4150 c0 -53 -24 -109 -58 -138 -23 -19 -25 -24 -12 -32 18
-12 59 -4 82 16 23 22 30 73 17 133 -13 64 -29 75 -29 21z"/>
<path d="M13117 3840 c-17 -43 -60 -70 -114 -70 l-28 -1 39 -33 c36 -31 39
-37 33 -72 -3 -22 -8 -47 -12 -56 -5 -12 -2 -18 7 -18 25 0 49 36 55 82 4 30
16 55 39 81 36 39 40 59 24 101 -13 36 -24 32 -43 -14z"/>
<path d="M12677 2850 c-21 -14 -47 -62 -47 -90 0 -12 7 -35 16 -51 15 -30 14
-33 -26 -109 -54 -104 -80 -209 -80 -324 l-1 -91 -43 -46 -42 -47 -12 80 c-13
91 -45 168 -90 220 -46 51 -76 61 -185 56 -79 -2 -99 -7 -129 -27 -84 -58
-138 -187 -145 -351 -6 -128 12 -227 59 -320 47 -91 95 -123 191 -128 164 -9
228 43 286 232 11 37 21 81 21 97 0 22 5 29 19 29 37 0 33 -56 -11 -154 -32
-69 -41 -100 -40 -142 1 -73 17 -118 55 -150 27 -23 38 -26 88 -22 45 3 66 11
109 42 l53 38 -6 -88 c-3 -49 -15 -120 -27 -159 -11 -38 -20 -71 -20 -72 0 -2
160 -3 355 -3 l356 0 -8 38 c-11 53 -8 158 6 219 l13 51 48 -30 c41 -25 55
-29 85 -24 43 8 103 60 130 113 10 21 20 39 21 41 1 2 19 -8 39 -23 35 -23 46
-25 150 -25 100 0 116 2 146 23 53 36 96 101 125 190 54 165 33 371 -48 493
-54 79 -84 94 -196 94 -83 0 -101 -3 -136 -24 -63 -37 -104 -100 -126 -193
-10 -46 -15 -53 -36 -53 -31 0 -93 -31 -118 -59 -16 -17 -31 -21 -88 -21 -111
0 -174 48 -80 61 51 7 119 52 145 96 22 39 46 165 47 246 0 54 -3 60 -42 104
-76 82 -270 199 -379 228 -63 17 -169 19 -219 5 -29 -8 -37 -7 -56 11 -26 24
-100 35 -127 19z m118 -101 c6 -19 8 -19 24 -5 11 10 46 18 92 22 92 8 167
-10 276 -65 82 -41 233 -146 233 -162 0 -5 -19 -9 -42 -9 -45 0 -78 -22 -78
-51 0 -24 44 -57 86 -65 39 -7 42 -18 18 -87 -24 -72 -54 -90 -137 -84 -76 5
-84 -6 -26 -35 l34 -18 -90 0 c-208 1 -368 69 -419 180 l-21 45 -3 -32 c-2
-17 2 -49 7 -71 19 -71 50 -103 146 -154 49 -26 91 -52 93 -57 2 -7 -30 -11
-96 -11 -94 0 -101 1 -115 24 -22 33 -81 59 -117 51 -16 -4 -45 -17 -65 -30
-41 -28 -43 -25 -13 18 17 24 23 51 29 139 12 159 41 247 112 341 21 26 37 51
37 55 0 4 -10 12 -22 17 -13 6 -27 23 -33 38 -8 24 -6 31 9 43 16 11 23 11 47
-1 15 -8 31 -24 34 -36z m-537 -402 c56 -60 87 -190 79 -340 -6 -127 -35 -224
-82 -275 l-34 -37 29 58 c16 31 36 91 46 133 32 147 3 381 -57 458 -25 32 -11
35 19 3z m1773 -107 c58 -151 24 -395 -71 -503 -41 -47 -60 -49 -25 -2 43 55
77 175 82 290 6 117 -6 186 -47 274 -17 35 -30 66 -30 69 1 20 73 -81 91 -128z
m-1888 -130 c36 -70 4 -205 -48 -205 -10 0 -27 13 -39 28 -29 39 -30 149 -2
190 27 39 65 34 89 -13z m1709 0 c34 -67 15 -184 -34 -214 -20 -12 -51 13 -63
52 -6 19 -3 22 25 22 24 0 33 6 40 26 15 37 -7 78 -43 82 -24 3 -27 7 -21 25
18 60 68 63 96 7z m-155 -92 c4 -32 -1 -58 -15 -92 -12 -25 -26 -71 -31 -102
-22 -117 -98 -234 -152 -234 -22 0 -49 51 -49 94 0 14 20 64 45 112 44 86 75
173 75 212 0 11 -7 25 -15 32 -20 17 -19 27 6 40 26 14 46 -1 67 -50 12 -30
15 -32 24 -16 10 18 8 42 -7 81 -6 17 -3 16 20 -6 19 -19 29 -40 32 -71z
m-1049 59 c6 -6 13 -24 17 -40 4 -15 11 -27 15 -27 13 0 22 38 15 60 -11 34
12 22 30 -17 17 -36 17 -39 -8 -142 -14 -58 -29 -122 -32 -141 -20 -114 -63
-176 -126 -186 -44 -7 -70 19 -76 78 -4 36 3 58 42 137 33 66 51 119 62 180
19 105 35 130 61 98z m726 -119 c22 -31 21 -124 -2 -168 -12 -25 -33 -43 -71
-62 -54 -27 -54 -28 -27 -38 15 -5 32 -10 37 -10 15 0 10 -72 -11 -155 -23
-91 -39 -118 -83 -146 -29 -18 -47 -19 -169 -17 -174 4 -180 8 -198 136 -7 48
-18 104 -26 125 -20 54 -19 57 34 57 27 0 57 6 67 14 18 13 15 15 -37 31 -31
9 -71 26 -90 39 -37 25 -38 36 -12 149 l16 67 279 0 c276 0 278 0 293 -22z
m111 12 c8 -13 -16 -93 -25 -83 -4 4 -10 27 -13 51 -4 36 -3 42 13 42 11 0 22
-4 25 -10z"/>
<path d="M12980 2599 c-16 -29 -4 -68 24 -80 31 -15 76 13 76 47 0 47 -79 73
-100 33z"/>
<path d="M12076 2064 c-18 -47 4 -105 31 -83 23 20 14 99 -12 99 -7 0 -16 -7
-19 -16z"/>
<path d="M13148 1821 c-6 -57 -30 -91 -79 -111 -37 -16 -28 -30 17 -30 55 0
94 44 94 107 0 27 -6 58 -14 68 -12 16 -14 13 -18 -34z"/>
<path d="M13150 1588 c0 -27 -57 -68 -96 -68 -42 0 -43 -10 -4 -33 28 -17 37
-40 31 -84 -3 -20 17 -15 29 6 5 11 10 29 10 41 0 12 11 35 25 52 26 31 31 63
15 88 -8 13 -10 13 -10 -2z"/>
</g>
</svg>
